<svg xmlns="http://www.w3.org/2000/svg" viewBox="0 0 567.85333 137.8" height="137.8" width="567.853"><defs><clipPath id="a"><path d="M0 1033.51V0h4258.88v1033.51z"/></clipPath></defs><g clip-path="url(#a)" transform="matrix(.13333 0 0 -.13333 0 137.8)"><path d="M767.938 937.23h159.496V520.566h94.856V937.23h159.46v86.23H767.938v-86.23M1335.02 774.203v160.859h144.39c59.63 0 86.23-40.234 86.23-80.429 0-40.242-25.86-80.43-86.23-80.43zm325.46 82.598c0 86.914-62.52 165.879-181.07 166.659-79.73 0-159.46.68-239.21.68V520.566h94.82v168.149h91.26l146.54-168.149h112.8v6.446l-152.29 171.742c95.51 19.434 127.15 89.004 127.15 158.047M1744.06 520.566h94.133v502.895h-94.133zM2155.3 596.039c-118.56 0-163.09 88.34-165.26 170.918-2.14 84.805 46.7 180.324 165.26 180.324 118.49 0 165.92-94.816 164.46-179.59-1.44-82.609-45.97-171.652-164.46-171.652zm0 437.471c-173.9 0-258.66-132.901-258.66-265.088 0-132.129 81.91-259.301 258.66-259.301 176.7 0 256.45 129.984 257.88 260.035 1.44 131.453-84.78 264.354-257.88 264.354M2566.45 1023.46h-94.81V520.566h353.41v87.641h-258.6v415.253M3038.93 703.793l93.39 214.07 93.4-214.07zm41.69 319.667l-225.59-502.894h102.74l43.1 94.848h262.94l42.36-94.848h103.48l-225.56 502.894h-103.47M3678.13 608.91h-145.1v129.336h145.1c38.79 0 94.14-23.691 94.14-68.984 0-47.344-55.35-60.352-94.14-60.352zm-145.1 328.32h145.1c60.36 0 79.05-38.769 79.05-61.777 0-28.719-19.4-53.867-79.05-53.867h-145.1zm252.86-156.589c46.73 20.828 65.42 58.132 65.42 96.98 0 101.309-74.01 145.839-173.18 145.839h-238.5V520.566h238.5c104.21 0 188.24 35.922 188.24 148.012 0 31.582-21.54 94.082-80.48 112.063" fill="#605c60"/><path d="M4243.4 807.074c-.38.352-.79.703-1.19 1.055l-239.23 204.021a47.227 47.227 0 0 1-30.75 11.31c-11.15 0-21.39-3.84-29.49-10.26-10.92-8.69-17.93-22.11-17.93-37.149 0-13.887 5.96-26.379 15.48-35.051.4-.352.79-.703 1.19-1.055l196.89-167.918-196.8-167.843c-.44-.372-.87-.762-1.29-1.133-9.51-8.672-15.47-21.153-15.47-35.039 0-26.196 21.23-47.446 47.42-47.446 11.15 0 21.4 3.848 29.49 10.293.44.352.86.703 1.29 1.055l239.22 204.027c10.19 8.692 16.65 21.641 16.65 36.075 0 13.886-5.96 26.386-15.48 35.058" fill="#5db54f"/><path d="M757.656 597.484c-.351.43-.703.84-1.062 1.289L552.578 837.992c-8.699 10.196-21.64 16.641-36.086 16.641-13.887 0-26.375-5.965-35.047-15.469-.351-.398-.703-.801-1.054-1.211L276.367 598.734c-7.058-8.281-11.328-19.004-11.328-30.761a47.269 47.269 0 0 1 10.281-29.477c8.696-10.918 22.09-17.93 37.153-17.93 13.882 0 26.382 5.957 35.054 15.469.356.41.703.801 1.059 1.211l167.906 196.879 167.844-196.801c.359-.429.742-.879 1.125-1.289 8.672-9.512 21.172-15.469 35.059-15.469 26.191 0 47.418 21.211 47.418 47.407 0 11.172-3.844 21.425-10.282 29.511" fill="#54a8d6"/><path d="M491.555 943.473c.347.418.711.847 1.05 1.289 6.45 8.086 10.286 18.34 10.286 29.48 0 26.188-21.231 47.418-47.422 47.418-13.899 0-26.375-5.96-35.047-15.46-.383-.43-.766-.85-1.145-1.29L251.438 808.117 83.528 1005c-.344.39-.696.79-1.055 1.18-8.676 9.52-21.176 15.48-35.063 15.48-15.039 0-28.453-7-37.144-17.93A47.24 47.24 0 0 1 0 974.242 47.222 47.222 0 0 1 11.309 943.5l204.035-239.238c.332-.371.679-.782 1.051-1.172 8.671-9.512 21.156-15.488 35.043-15.488 14.441 0 27.371 6.464 36.074 16.66l204.043 239.211" fill="#efb409"/><path d="M1143.39 94.531c-19.97-7.52-40.09-11.27-60.38-11.27-25.76 0-48.78 4.512-69.07 13.555-20.284 9.043-37.514 21.231-51.678 36.582-14.172 15.332-24.957 32.95-32.36 52.891-7.414 19.941-11.113 40.625-11.113 62.109 0 23.907 3.457 46.68 10.387 68.301 6.922 21.621 17.219 40.547 30.914 56.817 13.68 16.25 30.746 29.199 51.19 38.867 20.45 9.668 44.36 14.492 71.73 14.492 18.67 0 36.3-2.07 52.89-6.211 16.58-4.141 31.39-10.664 44.44-19.551 13.04-8.906 23.98-20.175 32.84-33.808 8.85-13.653 14.89-30.137 18.11-49.453h-45.88c-2.26 12.578-6.45 23.378-12.56 32.421-6.12 9.043-13.69 16.485-22.7 22.325-9.02 5.82-19.25 10.195-30.67 13.105-11.44 2.91-23.59 4.375-36.47 4.375-20.93 0-38.88-4.004-53.85-11.973-14.98-7.968-27.22-18.476-36.711-31.503-9.5-13.028-16.508-27.911-21.008-44.61-4.515-16.719-6.761-33.828-6.761-51.308 0-17.168 2.57-33.653 7.722-49.434 5.153-15.801 12.719-29.766 22.703-41.875 9.975-12.109 22.295-21.777 36.955-28.965 14.64-7.207 31.63-10.82 50.95-10.82 18.03 0 33.97 2.754 47.82 8.281 13.84 5.527 25.51 13.106 35.01 22.774 9.5 9.667 16.67 20.996 21.5 34.043 4.83 13.027 6.92 27.05 6.28 42.089H1083.5v36.797h151.17V90.605h-28.98l-12.07 40.957c-13.53-17.187-30.27-29.531-50.23-37.03M1332.71 328.438v-50.137h.97c9.98 19.316 22.22 33.574 36.71 42.773 14.49 9.199 32.85 13.496 55.06 12.871v-41.386c-16.42 0-30.43-2.149-42.02-6.446-11.59-4.297-20.93-10.586-28.01-18.867-7.09-8.281-12.24-18.32-15.46-30.117-3.22-11.817-4.83-25.391-4.83-40.723v-105.8h-41.05v237.832h38.63M1483.65 170.879c4.03-11.191 9.58-20.547 16.67-28.047 7.08-7.52 15.37-13.281 24.87-17.266 9.5-3.984 19.56-5.976 30.19-5.976 10.63 0 20.68 1.992 30.19 5.976 9.49 3.985 17.78 9.746 24.87 17.266 7.08 7.5 12.64 16.856 16.66 28.047 4.03 11.191 6.04 24.004 6.04 38.418 0 14.414-2.01 27.207-6.04 38.398-4.02 11.192-9.58 20.625-16.66 28.301-7.09 7.656-15.38 13.496-24.87 17.481-9.51 3.984-19.56 5.976-30.19 5.976-10.63 0-20.69-1.992-30.19-5.976-9.5-3.985-17.79-9.825-24.87-17.481-7.09-7.676-12.64-17.109-16.67-28.301-4.03-11.191-6.03-23.984-6.03-38.398 0-14.414 2-27.227 6.03-38.418zm-41.77 87.402c5.14 15.176 12.87 28.36 23.18 39.571 10.3 11.191 23.02 20 38.15 26.445 15.13 6.445 32.52 9.648 52.17 9.648 19.96 0 37.43-3.203 52.4-9.648 14.98-6.445 27.61-15.254 37.92-26.445 10.3-11.211 18.03-24.395 23.18-39.571 5.15-15.176 7.73-31.504 7.73-48.984 0-17.481-2.58-33.75-7.73-48.77-5.15-15.019-12.88-28.125-23.18-39.316-10.31-11.211-22.94-19.941-37.92-26.23-14.97-6.29-32.44-9.434-52.4-9.434-19.65 0-37.04 3.144-52.17 9.433-15.13 6.29-27.85 15.02-38.15 26.231-10.31 11.191-18.04 24.297-23.18 39.316-5.16 15.02-7.73 31.289-7.73 48.77 0 17.48 2.57 33.808 7.73 48.984M1892.99 90.606v37.734h-.96c-8.7-14.727-19.81-25.528-33.33-32.442-13.53-6.894-29.47-10.351-47.82-10.351-16.42 0-30.11 2.07-41.06 6.21-10.94 4.141-19.8 10.04-26.56 17.716-6.76 7.656-11.52 16.797-14.25 27.363-2.74 10.586-4.1 22.324-4.1 35.195v156.407h41.05V167.441c0-14.726 4.51-26.386 13.53-34.961 9.01-8.593 21.4-12.89 37.18-12.89 12.56 0 23.43 1.836 32.61 5.527 9.18 3.672 16.82 8.887 22.94 15.645 6.11 6.738 10.7 14.629 13.77 23.672 3.05 9.043 4.59 18.945 4.59 29.687v134.317h41.05V90.606h-38.64M2183.52 244.023c-3.07 10.586-7.73 20-14.01 28.282-6.28 8.281-14.33 14.883-24.15 19.785-9.83 4.902-21.34 7.363-34.53 7.363-13.85 0-25.61-2.617-35.26-7.812-9.66-5.235-17.56-12.051-23.67-20.469-6.12-8.438-10.55-18.027-13.28-28.75a131.621 131.621 0 0 1-4.11-32.676c0-11.66 1.45-22.93 4.35-33.808 2.9-10.879 7.48-20.469 13.76-28.75 6.28-8.282 14.41-14.942 24.4-20 9.97-5.059 22.05-7.598 36.22-7.598 14.17 0 26 2.598 35.5 7.832 9.49 5.195 17.15 12.109 22.94 20.683 5.8 8.594 9.98 18.399 12.56 29.454 2.58 11.035 3.87 22.382 3.87 34.043 0 11.035-1.54 21.836-4.59 32.421zm-147.56 84.415V296.23h.96c6.77 13.184 17.39 22.774 31.88 28.75 14.5 5.977 30.43 8.965 47.82 8.965 19.32 0 36.14-3.379 50.47-10.117 14.33-6.738 26.24-15.859 35.75-27.363 9.49-11.504 16.66-24.766 21.49-39.785 4.82-15.039 7.24-30.977 7.24-47.852 0-16.855-2.34-32.812-6.99-47.832-4.68-15.039-11.77-28.144-21.26-39.336-9.5-11.191-21.42-20-35.74-26.445-14.33-6.446-31-9.668-49.99-9.668-6.13 0-12.97.625-20.53 1.855-7.57 1.211-15.06 3.203-22.46 5.977-7.41 2.754-14.41 6.504-21.01 11.269-6.6 4.747-12.16 10.645-16.67 17.696h-.96V0h-41.05v328.438h41.05" fill="#605c60"/></g></svg>