<?xml version="1.0" standalone="no"?>
<!DOCTYPE svg PUBLIC "-//W3C//DTD SVG 20010904//EN"
 "http://www.w3.org/TR/2001/REC-SVG-20010904/DTD/svg10.dtd">
<svg version="1.0" xmlns="http://www.w3.org/2000/svg"
 width="1170.000000pt" height="1170.000000pt" viewBox="0 0 1170.000000 1170.000000"
 preserveAspectRatio="xMidYMid meet">
<metadata>
Created by potrace 1.11, written by Peter Selinger 2001-2013
</metadata>
<g transform="translate(0.000000,1170.000000) scale(0.100000,-0.100000)"
fill="#000000" stroke="none">
<path d="M5210 8509 l0 -1229 -400 0 -400 0 0 491 0 491 -26 -6 c-91 -23 -846
-341 -1026 -432 l-48 -24 0 -260 0 -260 -267 -2 -268 -3 -3 -472 -2 -473 267
-2 268 -3 6 -1100 c6 -1175 6 -1179 58 -1397 98 -414 365 -667 775 -733 164
-27 504 -16 831 25 116 15 289 51 296 61 3 5 221 10 485 11 l479 3 5 555 5
555 225 257 c215 246 226 257 240 238 9 -11 117 -183 242 -383 125 -199 348
-555 497 -792 l269 -430 571 -3 c314 -1 571 1 571 4 0 6 -172 280 -600 959
-360 570 -864 1371 -882 1401 l-18 31 222 270 c123 148 295 357 383 463 88
106 242 293 342 414 l183 221 -563 3 -562 3 -32 -38 c-17 -21 -112 -142 -210
-268 -98 -127 -331 -428 -518 -669 l-340 -438 -8 564 c-4 309 -10 1213 -15
2008 l-7 1445 -55 12 c-221 50 -481 97 -685 123 -132 17 -250 32 -262 34 l-23
3 0 -1228z m0 -3307 l0 -1129 -122 -22 c-329 -59 -535 -38 -611 63 -14 18 -35
61 -46 94 -21 60 -21 78 -21 1092 l0 1030 400 0 400 0 0 -1128z"/>
</g>
</svg>
