<?xml version="1.0" standalone="no"?>
<!DOCTYPE svg PUBLIC "-//W3C//DTD SVG 20010904//EN"
 "http://www.w3.org/TR/2001/REC-SVG-20010904/DTD/svg10.dtd">
<svg version="1.0" xmlns="http://www.w3.org/2000/svg"
 width="243.000000pt" height="243.000000pt" viewBox="0 0 243.000000 243.000000"
 preserveAspectRatio="xMidYMid meet">
<metadata>
Created by potrace 1.11, written by Peter Selinger 2001-2013
</metadata>
<g transform="translate(0.000000,243.000000) scale(0.100000,-0.100000)"
fill="#000000" stroke="none">
<path d="M1203 2337 c-76 -37 -71 37 -72 -1105 0 -662 4 -1031 10 -1045 13
-28 65 -64 110 -77 78 -23 169 -4 228 47 l41 35 0 182 0 182 86 79 c48 44 92
81 98 82 6 2 29 -27 51 -62 22 -36 43 -65 47 -65 5 0 8 -5 8 -11 0 -6 20 -39
44 -73 23 -33 94 -137 156 -229 62 -93 123 -175 136 -184 28 -18 86 -19 129
-3 82 31 160 133 149 195 -3 16 -106 174 -230 351 -123 178 -224 326 -224 330
0 4 10 15 21 25 55 48 221 201 286 264 79 77 88 101 59 168 -17 39 -81 102
-119 116 -71 27 -98 15 -212 -94 -38 -36 -126 -120 -195 -185 -69 -65 -161
-152 -205 -193 l-80 -76 -5 649 c-5 634 -5 650 -25 665 -51 40 -81 49 -165 51
-69 2 -93 -2 -127 -19z"/>
<path d="M195 1793 c1 -93 -1 -174 -3 -180 -3 -9 -32 -13 -98 -13 l-94 0 0
-175 0 -175 98 0 97 0 0 -378 c-1 -417 7 -517 49 -608 33 -73 100 -136 174
-165 45 -18 80 -23 167 -25 61 -1 135 2 165 6 111 16 145 22 152 26 7 5 12
334 5 334 -1 0 -17 -4 -36 -10 -18 -5 -68 -12 -111 -16 -86 -7 -129 7 -152 49
-9 16 -13 119 -13 405 l-1 382 151 0 150 0 0 175 0 175 -150 0 -151 0 1 178 0
177 -201 3 -201 2 2 -167z"/>
</g>
</svg>
